<?xml version="1.0" encoding="UTF-8" standalone="no"?>
<svg width="300px" height="79px" viewBox="0 0 300 79" version="1.1" xmlns="http://www.w3.org/2000/svg" xmlns:xlink="http://www.w3.org/1999/xlink">
    <!-- Generator: Sketch 3.7 (28169) - http://www.bohemiancoding.com/sketch -->
    <title>Escape-logo copy</title>
    <desc>Created with Sketch.</desc>
    <defs></defs>
    <g id="Page-1" stroke="none" stroke-width="1" fill="none" fill-rule="evenodd">
        <g id="Desktop_Homepage_Final" transform="translate(-570.000000, -155.000000)" fill="#000000">
            <g id="Escape-logo-copy" transform="translate(570.000000, 155.000000)">
                <polygon id="Fill-1" points="0.14274435 1.15887993 40.438477 1.15887993 40.438477 16.8195042 21.1714133 16.8195042 21.1714133 30.9361779 38.0164373 30.9361779 38.0164373 46.265945 21.1714133 46.265945 21.1714133 61.9265693 41.5394988 61.9265693 41.5394988 77.5871935 0.14274435 77.5871935"></polygon>
                <g id="Group-12" transform="translate(46.142595, 0.133148)">
                    <path d="M0.571111361,74.9174636 L0.571111361,59.2568393 C2.99315104,60.249411 8.38811346,62.0140325 13.892925,62.0140325 C19.8381751,62.0140325 22.810949,60.3597464 22.810949,55.8379318 C22.810949,51.5367881 21.1593418,50.1030238 16.86555,48.0076942 L12.792052,45.9122155 C5.41533958,42.2727862 0.130821699,35.7658284 0.130821699,23.7446334 C0.130821699,7.86348733 8.71825628,0.143436068 24.7925501,0.143436068 C32.4994054,0.143436068 36.5730523,1.1360077 39.4355305,2.45943654 L39.4355305,18.2303963 C36.6831991,17.1274892 32.2792606,16.1349176 27.4348835,16.1349176 C22.5906553,16.1349176 20.1686156,17.3481601 20.1686156,21.6493038 C20.1686156,25.5092549 22.0402188,26.3914911 25.5632803,28.1561125 L29.6369272,30.1412558 C38.775096,34.4425486 42.9587408,39.8464503 42.9587408,52.6396952 C42.9587408,69.6237483 34.4811554,78.2260357 17.5261334,78.2260357 C11.1404448,78.2260357 4.5346114,77.0129423 0.571111361,74.9174636" id="Fill-2"></path>
                    <path d="M47.471829,43.1551119 L47.471829,35.8762533 C47.471829,7.64290591 60.4633509,0.143376428 77.418373,0.143376428 C83.4737699,0.143376428 88.9785814,1.46695437 91.6209148,2.68004777 L91.6209148,18.0098148 C89.5291668,17.237765 86.2261012,16.686386 82.9233334,16.686386 C73.5650198,16.686386 70.1519562,20.6566725 70.1519562,34.993868 L70.1519562,42.0523539 C70.1519562,55.8380213 72.6841427,61.793451 82.1526032,61.793451 C86.5565417,61.793451 89.8593096,60.9112149 91.9512065,60.139165 L91.9512065,75.3585966 C89.4190199,76.7923609 83.253625,78.3363115 76.7577896,78.3363115 C57.3805791,78.3363115 47.471829,69.4031669 47.471829,43.1551119" id="Fill-4"></path>
                    <path d="M121.786204,20.3258451 C121.786204,20.3258451 121.235768,27.8252255 120.024748,36.6481838 L117.60256,51.6470937 L126.630582,51.6470937 L124.098246,36.5378484 C122.777079,27.384182 122.116645,20.3258451 122.116645,20.3258451 L121.786204,20.3258451 Z M110.115998,1.02579154 L135.548457,1.02579154 L151.072314,77.4541052 L130.704228,77.4541052 L128.722478,65.6534319 L115.62081,65.6534319 L113.859204,77.4541052 L94.9224323,77.4541052 L110.115998,1.02579154 Z" id="Fill-6"></path>
                    <path d="M179.476653,38.4127457 C183.440302,38.4127457 185.091761,35.5453662 185.091761,27.0532651 C185.091761,18.4509777 183.440302,16.0246418 179.476653,16.0246418 L176.83432,16.0246418 L176.83432,38.4127457 L179.476653,38.4127457 Z M155.8058,1.0257319 L183.330155,1.0257319 C200.285177,1.0257319 206.450721,8.52526139 206.450721,26.0606935 C206.450721,44.3681755 200.395324,52.5294194 183.220009,52.5294194 L176.83432,52.5294194 L176.83432,77.4540455 L155.8058,77.4540455 L155.8058,1.0257319 Z" id="Fill-8"></path>
                    <polygon id="Fill-10" points="211.955414 1.0257319 252.251146 1.0257319 252.251146 16.6863562 232.983934 16.6863562 232.983934 30.8030299 249.828958 30.8030299 249.828958 46.1327969 232.983934 46.1327969 232.983934 61.7934212 253.352019 61.7934212 253.352019 77.4540455 211.955414 77.4540455"></polygon>
                </g>
            </g>
        </g>
    </g>
</svg>